<svg width="46" height="46" viewBox="0 0 101 100" fill="none" xmlns="http://www.w3.org/2000/svg">
<rect x="0.5" width="100" height="100" rx="20" fill="none"/>
<path fill-rule="evenodd" clip-rule="evenodd" d="M52.134 25.7258C50.8759 24.7581 49.1241 24.7581 47.866 25.7258L27.866 41.1104C27.0047 41.773 26.5 42.798 26.5 43.8846V71.9302C26.5 73.8632 28.067 75.4302 30 75.4302H70C71.933 75.4302 73.5 73.8632 73.5 71.9302V43.8846C73.5 42.798 72.9953 41.773 72.134 41.1104L52.134 25.7258ZM44.8175 21.7627C47.8728 19.4124 52.1272 19.4124 55.1825 21.7627L75.1825 37.1473C77.2743 38.7563 78.5 41.2456 78.5 43.8846V71.9302C78.5 76.6246 74.6944 80.4302 70 80.4302H30C25.3056 80.4302 21.5 76.6246 21.5 71.9302V43.8846C21.5 41.2456 22.7257 38.7563 24.8175 37.1473L44.8175 21.7627Z" fill="#E1F5FE"/>
<path fill-rule="evenodd" clip-rule="evenodd" d="M38.5 57.9302C38.5 54.3404 41.4101 51.4302 45 51.4302H54C57.5899 51.4302 60.5 54.3404 60.5 57.9302V77.9302H55.5V57.9302C55.5 57.1018 54.8284 56.4302 54 56.4302H45C44.1716 56.4302 43.5 57.1018 43.5 57.9302V77.9302H38.5V57.9302Z" fill="#E1F5FE"/>
</svg>
