<svg width="28" height="28" viewBox="0 0 62 62" fill="none" xmlns="http://www.w3.org/2000/svg">
<path fill-rule="evenodd" clip-rule="evenodd" d="M0.5 19.1963C0.5 16.711 2.51472 14.6963 5 14.6963H12C14.4853 14.6963 16.5 16.711 16.5 19.1963V54.1963C16.5 58.3384 13.1421 61.6963 9 61.6963H8C3.85786 61.6963 0.5 58.3384 0.5 54.1963V19.1963ZM5.5 19.6963V54.1963C5.5 55.577 6.61929 56.6963 8 56.6963H9C10.3807 56.6963 11.5 55.577 11.5 54.1963V19.6963H5.5Z" fill="#fff"/>
<path fill-rule="evenodd" clip-rule="evenodd" d="M11.5 8.19629C11.5 4.05415 14.8579 0.696289 19 0.696289H54C58.1421 0.696289 61.5 4.05415 61.5 8.19629V47.1963C61.5 55.2044 55.0081 61.6963 47 61.6963H9V56.6963H47C52.2467 56.6963 56.5 52.443 56.5 47.1963V8.19629C56.5 6.81558 55.3807 5.69629 54 5.69629H19C17.6193 5.69629 16.5 6.81558 16.5 8.19629V40.1963H11.5V8.19629Z" fill="#fff"/>
<path fill-rule="evenodd" clip-rule="evenodd" d="M23.5 34.1963C23.5 32.8156 24.6193 31.6963 26 31.6963H48C49.3807 31.6963 50.5 32.8156 50.5 34.1963C50.5 35.577 49.3807 36.6963 48 36.6963H26C24.6193 36.6963 23.5 35.577 23.5 34.1963Z" fill="#fff"/>
<path fill-rule="evenodd" clip-rule="evenodd" d="M23.5 45.1963C23.5 43.8156 24.6193 42.6963 26 42.6963H48C49.3807 42.6963 50.5 43.8156 50.5 45.1963C50.5 46.577 49.3807 47.6963 48 47.6963H26C24.6193 47.6963 23.5 46.577 23.5 45.1963Z" fill="#fff"/>
<path d="M33 17.6963C33 20.1816 30.9853 22.1963 28.5 22.1963C26.0147 22.1963 24 20.1816 24 17.6963C24 15.211 26.0147 13.1963 28.5 13.1963C30.9853 13.1963 33 15.211 33 17.6963Z" fill="#fff"/>
</svg>
